<svg width="101" height="103" viewBox="0 0 101 103" fill="none" xmlns="http://www.w3.org/2000/svg">
<mask id="mask0_225_1743" style="mask-type:luminance" maskUnits="userSpaceOnUse" x="0" y="0" width="101" height="103">
<path d="M100.426 22.4796L21.2231 0.929199L0.0118943 81.3146L79.2145 102.865L100.426 22.4796Z" fill="white"/>
</mask>
<g mask="url(#mask0_225_1743)">
<path d="M87.7971 62.1087C82.2355 83.1732 60.9006 95.6738 40.1444 90.0296C19.3882 84.3854 7.07043 62.7337 12.6321 41.6692C18.1937 20.6048 39.5285 8.10412 60.2848 13.7483C81.041 19.3925 93.3587 41.0443 87.7971 62.1087Z" fill="#FFD8A6"/>
<path fill-rule="evenodd" clip-rule="evenodd" d="M59.7434 15.7991C40.103 10.4583 19.9152 22.2869 14.6526 42.2189C9.38986 62.151 21.0454 82.6386 40.6858 87.9795C60.3261 93.3202 80.514 81.4916 85.7766 61.5596C91.0392 41.6275 79.3837 21.1398 59.7434 15.7991ZM10.6116 41.1201C16.4722 18.9231 38.954 5.75048 60.8261 11.6981C82.6983 17.6458 95.6781 40.4615 89.8175 62.6584C83.9569 84.8553 61.4751 98.028 39.603 92.0804C17.7309 86.1327 4.75095 63.317 10.6116 41.1201ZM39.6521 41.4477L32.0075 31.9508L35.2473 29.2648L47.0462 43.9225L30.0109 48.3128L28.9812 44.1978L39.6521 41.4477ZM74.8051 40.0217L76.2875 43.9918L64.9881 48.3373L72.8745 56.1336L69.9554 59.1748L57.3654 46.7286L74.8051 40.0217ZM45.2394 74.2196C35.8361 71.5432 27.1369 64.0413 25.6184 53.4054L29.7587 52.7967C30.9755 61.3197 38.0764 67.7714 46.3691 70.1318C54.6514 72.4891 63.3356 70.5711 67.8411 63.3629L71.3738 65.6371C65.5608 74.9371 54.6532 76.899 45.2394 74.2196Z" fill="#3E4153"/>
</g>
</svg>
