<svg width="73" height="85" viewBox="0 0 73 85" fill="none" xmlns="http://www.w3.org/2000/svg">
<g clip-path="url(#clip0_235_902)">
<mask id="mask0_235_902" style="mask-type:luminance" maskUnits="userSpaceOnUse" x="0" y="0" width="73" height="85">
<path d="M73 0H0V85H73V0Z" fill="white"/>
</mask>
<g mask="url(#mask0_235_902)">
<path d="M39.0681 3.40063C39.1374 4.62753 39.1727 5.95406 39.1563 7.35274C40.4584 35.8884 55.9207 43.324 67.0008 43.5896C67.8679 43.5393 68.7614 43.5136 69.6819 43.5136C68.8261 43.5837 67.9288 43.6119 67.0008 43.5896C42.6874 44.9985 39.0362 65.6761 39.008 78.5264C39.048 79.5209 39.0681 80.5452 39.0681 81.6006C39.0292 80.6426 39.0056 79.6124 39.008 78.5264C37.9671 52.6412 23.5256 47.0252 3.31836 43.5136C33.4065 43.5136 38.9883 21.659 39.1563 7.35274C39.0982 6.0779 39.0681 4.76094 39.0681 3.40063Z" fill="#FFD8A6"/>
<path fill-rule="evenodd" clip-rule="evenodd" d="M38.9724 0.00144293C40.7669 -0.0516598 42.2772 1.36733 42.3808 3.2038C42.4525 4.47461 42.4899 5.84558 42.4753 7.29055C43.1126 20.8812 47.0792 28.949 51.7392 33.6486C56.3915 38.34 62.0994 40.0436 66.9526 40.1865C67.8401 40.1377 68.7497 40.1129 69.6818 40.1129C71.4629 40.1129 72.9262 41.5537 72.9972 43.3772C73.0685 45.2008 71.7218 46.7565 69.9465 46.9022C69.0207 46.9781 68.0558 47.0102 67.0622 46.9911C56.0749 47.6621 50.1341 52.5563 46.7639 58.4793C43.257 64.6426 42.3467 72.2766 42.3264 78.4613C42.3663 79.4807 42.3863 80.5268 42.3863 81.6C42.3863 83.4501 40.9427 84.9606 39.1375 84.9993C37.3323 85.0379 35.8283 83.5905 35.7529 81.742C35.7128 80.7617 35.6883 79.7069 35.6897 78.5938C35.1859 66.3889 31.5885 59.5885 26.292 55.296C20.7498 50.8044 12.8533 48.6186 2.76348 46.8651C1.06311 46.5695 -0.132854 44.9887 0.0118486 43.2277C0.156552 41.4668 1.59367 40.1129 3.31832 40.1129C17.475 40.1129 25.3211 35.0342 29.7792 28.7899C34.3549 22.3809 35.7451 14.2074 35.8371 7.4085C35.7795 6.11097 35.75 4.77516 35.75 3.40003C35.75 1.56047 37.1778 0.0545453 38.9724 0.00144293ZM39.1206 25.4815C38.101 28.0053 36.7954 30.4796 35.1353 32.8048C31.6528 37.6827 26.7432 41.7197 20.0251 44.2077C23.8528 45.6488 27.3623 47.4935 30.4089 49.9626C33.8256 52.7316 36.5522 56.1882 38.5356 60.5044C39.2076 58.6462 40.0293 56.8144 41.0308 55.0544C43.778 50.2264 47.8062 46.0696 53.5076 43.3752C51.2813 42.1387 49.1082 40.5361 47.0843 38.4951C43.8523 35.2358 41.1022 30.9613 39.1206 25.4815Z" fill="#18181B"/>
</g>
</g>
<defs>
<clipPath id="clip0_235_902">
<rect width="73" height="85" fill="white"/>
</clipPath>
</defs>
</svg>
