<svg width="64" height="74" viewBox="0 0 64 74" fill="none" xmlns="http://www.w3.org/2000/svg">
<g clip-path="url(#clip0_261_1154)">
<mask id="mask0_261_1154" style="mask-type:luminance" maskUnits="userSpaceOnUse" x="0" y="0" width="64" height="74">
<path d="M64 0H0V74H64V0Z" fill="white"/>
</mask>
<g mask="url(#mask0_261_1154)">
<path d="M34.2515 2.95996C34.3122 4.02809 34.3432 5.18295 34.3287 6.40062C35.4705 31.2434 49.0263 37.7167 58.7403 37.9479C59.5005 37.9042 60.2839 37.8817 61.0909 37.8817C60.3407 37.9429 59.554 37.9673 58.7403 37.9479C37.4245 39.1745 34.2235 57.1762 34.1986 68.3635C34.2338 69.2293 34.2515 70.1212 34.2515 71.04C34.2173 70.206 34.1966 69.3091 34.1986 68.3635C33.2861 45.8282 20.6251 40.9391 2.90918 37.8817C29.2878 37.8817 34.1814 18.8555 34.3287 6.40062C34.2777 5.29075 34.2515 4.14423 34.2515 2.95996Z" fill="#FFCBF4"/>
<path fill-rule="evenodd" clip-rule="evenodd" d="M34.1675 0.0012562C35.7409 -0.0449744 37.0649 1.19038 37.1557 2.78919C37.2187 3.89554 37.2514 5.0891 37.2386 6.34707C37.7974 18.1788 41.2749 25.2028 45.3605 29.2941C49.4391 33.3784 54.4435 34.8615 58.6981 34.9859C59.4762 34.9434 60.2737 34.9219 61.0908 34.9219C62.6523 34.9219 63.9353 36.1762 63.9976 37.7637C64.06 39.3513 62.8794 40.7056 61.323 40.8325C60.5113 40.8985 59.6654 40.9264 58.7943 40.9099C49.1615 41.4942 43.9531 45.7549 40.9986 50.9114C37.924 56.2771 37.126 62.9231 37.1079 68.3075C37.1431 69.195 37.1606 70.1057 37.1606 71.04C37.1606 72.6507 35.8949 73.9657 34.3123 73.9994C32.7297 74.033 31.4112 72.7729 31.345 71.1637C31.31 70.3101 31.2884 69.3919 31.2896 68.4228C30.8479 57.7974 27.694 51.8771 23.0506 48.1401C18.1916 44.2297 11.2687 42.3267 2.42277 40.8002C0.932041 40.543 -0.116475 39.1666 0.0103878 37.6336C0.137251 36.1005 1.39719 34.9219 2.90922 34.9219C15.3206 34.9219 22.1994 30.5004 26.1078 25.0642C30.1193 19.4846 31.3381 12.3688 31.4188 6.44975C31.3683 5.32014 31.3424 4.1572 31.3424 2.96001C31.3424 1.35853 32.5943 0.0474865 34.1675 0.0012562ZM34.2975 22.1839C33.4035 24.3809 32.259 26.5352 30.8036 28.5596C27.7504 32.8061 23.446 36.3207 17.5562 38.4867C20.9121 39.7413 23.989 41.3474 26.6599 43.4969C29.6552 45.9075 32.0458 48.9168 33.7847 52.6744C34.3738 51.0567 35.0943 49.4619 35.9723 47.9297C38.3806 43.7265 41.9123 40.1077 46.9108 37.7621C44.959 36.6855 43.0538 35.2903 41.2794 33.5134C38.4458 30.676 36.0348 26.9545 34.2975 22.1839Z" fill="#18181B"/>
</g>
</g>
<defs>
<clipPath id="clip0_261_1154">
<rect width="64" height="74" fill="white"/>
</clipPath>
</defs>
</svg>
