<svg xmlns="http://www.w3.org/2000/svg" width="103" height="105" viewBox="0 0 103 105" fill="none"><g id="Tail"><path id="Vector 4 (Stroke)" fill-rule="evenodd" clip-rule="evenodd" d="M67.4282 43.4366C77.0885 45.3752 87.8902 53.1754 95.1487 69.1595C95.6098 70.1748 96.7992 70.6375 97.8053 70.1928C98.8114 69.7481 99.2533 68.5645 98.7922 67.5492C91.1059 50.623 79.3506 41.7486 68.1514 39.5013C67.3173 39.3339 66.4865 39.2037 65.6613 39.1101C60.4065 22.6308 47.1511 15.3558 34.1431 16.1836C21.1532 17.0102 8.51037 25.9092 4.47832 41.294C4.19853 42.3615 4.83978 43.4688 5.91058 43.7671C6.98138 44.0654 8.07624 43.4418 8.35603 42.3743C11.9391 28.7027 23.1008 20.9127 34.4645 20.1896C45.3292 19.4983 56.4714 25.2588 61.3971 38.9503C52.9043 39.2911 45.493 43.63 41.8914 51.157C39.5033 56.1479 40.828 60.9269 43.8051 64.3388C46.7102 67.6683 51.2385 69.7908 55.6438 69.8421C60.1679 69.8949 64.6142 67.7416 66.8698 62.5483C68.7709 58.1714 69.0099 51.8739 66.8616 43.3293C67.05 43.3629 67.2389 43.3986 67.4282 43.4366ZM62.6323 42.9388C65.0461 51.752 64.6835 57.4571 63.1903 60.895C61.6382 64.4684 58.7469 65.8647 55.6227 65.8283C52.3797 65.7905 48.949 64.1853 46.8037 61.7266C44.7304 59.3504 43.9133 56.2809 45.5112 52.9413C48.5229 46.6472 54.9714 42.9047 62.6323 42.9388Z" fill="#18181B"></path></g></svg>